# xmcd
#
# Track frame offsets:
# 150
# 33150
# 66277
# 78090
# 111390
# 130222
# 154845
# 175770
# 188190
# 203808
# 234046
# 268865
# 291525
#
# Disc length: 4268 seconds
#
#
# Revision: 6
# Processed by: cddbd v1.5.1PL2 Copyright (c) Steve Scherf et al.
# Submitted via: FreeRIP 2.00 
#
DISCID=b510aa0d
DTITLE=Various Artist - New Age  e New Sound Vol 115
DYEAR=1900
DGENRE=New Age
TTITLE0=Davide Ravasio - Hunter's Heart
TTITLE1=Kamal - Song of the deep
TTITLE2=Ciro Perrino - Il silenzio è musica e armonia
TTITLE3=Renaud Gaecia Fons - Navigatore
TTITLE4=Roberto Coccia - Benedictus
TTITLE5=Sheila Chandra - This
TTITLE6=Dan Schwartz - Rayjoce!
TTITLE7=Ciro Perrino - Accettati, cresci, matura"
TTITLE8=Susanna Parigi - Una porta nel tempo
TTITLE9=Mike Rowland - Serenade in G
TTITLE10=Luna - Eternal Longing
TTITLE11=Sarah Jane Morris - Mercy Mercy me
TTITLE12=Lino Cannavacciuolo - Perla Nera
EXTD=
EXTT0=
EXTT1=
EXTT2=
EXTT3=
EXTT4=
EXTT5=
EXTT6=
EXTT7=
EXTT8=
EXTT9=
EXTT10=
EXTT11=
EXTT12=
PLAYORDER=
